<?xml version="1.0" encoding="UTF-8"?>
<svg preserveAspectRatio="xMidYMid meet" data-bbox="6.68 0 128.863 49.655" xmlns="http://www.w3.org/2000/svg" viewBox="6.68 0 128.863 49.655" height="51" width="136" data-type="color" role=presentation aria-hidden=true aria-label="">
    <g>
        <path fill="#363636" d="M6.68 47.214q0-.45.056-1.233v-.952q0-.28.112-1.009.056-.728.056-1.064 0-1.176.112-2.129.055-.39.112-1.12V38.7q.335-3.754.56-8.851.168-2.577.616-3.865.616-1.569 1.737-2.745.951-.896 2.857-1.793 1.904-.896 3.417-.896h5.77q2.24 0 4.873 1.792.393-.504 2.185-1.232 1.456-.56 2.857-.56h5.546q1.96 0 4.313 1.4 3.417 2.017 3.417 5.938l-.392 6.89q0 .169-.056.393v.336l-.28 4.873a10 10 0 0 0-.112.897v.616q-.056.112-.056.392.056.28 0 .392l-.224 3.081q0 1.569-.224 2.129-.393 1.008-1.457 1.456-1.065.393-2.128.28-1.01-.111-1.68-.56-.841-.615-.841-1.68 0-.45.224-4.65 0-.224.056-1.008.056-.84.056-1.289l.728-10.643q.168-1.29-.224-2.297-.56-1.569-2.353-1.568h-3.585q-1.288 0-2.017.672l-.112.112q-1.008 1.064-1.008 3.753 0 .225-.056.448-.056.225-.056.448l-.504 8.515q-.056.113-.056.897 0 .166-.056.448v.448q0 .448-.112 1.848t-.112 1.737q-.057 2.353-.616 3.249-.729 1.008-2.577 1.064-1.793.112-2.521-.728-.84-.84-.672-2.353.056-.168.056-.672.056-.56.056-.728l.112-1.4v-.841q.056-.56.056-.672l.168-2.857V38.7q.056-.617.112-.84l.224-3.25q.056-.783.168-2.744t.112-3.025q0-1.233-.616-2.13-.56-.783-1.96-.783h-3.53q-3.137 0-3.137 3.64l-.28 4.538q-.056 1.176-.112 1.849l-.168 2.073q-.28 5.097-.448 7.282a6 6 0 0 0-.056.952q0 .56-.056.897 0 .279-.168.672a2.6 2.6 0 0 1-.336.728q-.617.785-2.017 1.008-1.401.28-2.577-.336T6.68 47.214" data-color="1"/>
        <path fill="#363636" d="M54.315 38.81q-.056 1.345-.056 2.41.056 1.064.784 1.736.73.616 2.24.616h5.435q1.68 0 2.576-.896.953-.952 1.065-2.633l1.064-17.085q.112-2.465 3.25-2.465 1.455 0 2.24.672.785.615.728 1.793l-1.12 18.374q-.225 4.2-3.361 6.218-2.913 2.016-5.658 2.016h-7.73q-1.178 0-2.633-.448-1.402-.504-2.745-1.512-1.513-1.513-1.961-2.857t-.56-3.922l1.064-17.925q.168-2.41 3.137-2.41 1.456 0 2.353.673.896.672.84 1.849z" data-color="1"/>
        <path fill="#363636" d="M79.235 49.51q-1.008 0-1.624-.28-.673-.279-.953-.672-.28-.448-.392-1.12-.112-.729-.056-1.233.057-.56.168-1.4.056-.84.056-1.345l.224-4.37q.112-1.119.112-2.184l1.345-23.976q0-2.128.392-3.025.448-1.065 1.905-1.456 1.456-.393 2.744.224 1.345.56 1.345 1.96 0 .337-.056 1.121 0 .784-.056 1.737-.056.896-.112 1.736t-.112 1.457l-.056.56-1.513 27.729q-.055.28-.112 1.064 0 .728-.056 1.065 0 .28-.168.784-.168.448-.504.784a4.7 4.7 0 0 1-.896.56q-.672.28-1.625.28" data-color="1"/>
        <path fill="#363636" d="M96.956 20.493q.672 0 4.649-.056 4.034-.057 4.202.056 2.352.056 3.921 1.288 1.624 1.233 2.241 3.025.672 1.793.84 3.921.224 2.13-.056 3.978t-.784 3.193q-.448 1.345-.897 1.624-.56.28-1.736.169h-10.14q-.28-.057-.896 0-.615.056-.952 0a6 6 0 0 1-.672-.337q-.336-.224-.504-.84-.168-.615-.112-1.624 0-.84.224-1.4a4.5 4.5 0 0 1 .336-.73.9.9 0 0 1 .448-.391 1.3 1.3 0 0 1 .448-.112q.168-.057.56 0h.616l6.835-.056q.28 0 .448-.056a.85.85 0 0 0 .336-.28q.168-.225.224-.449t.056-.56q.056-.335.056-.56.056-.28.056-.672v-.616q.056-1.456-.616-2.241-.672-.84-2.521-.84h-6.274q-2.13 0-2.913 1.96-.112.393-.168.672-.056.28-.056.673 0 .392-.056.728l-.448 6.778q0 .392-.056 1.065t-.056.84q0 .336-.056 1.008t-.056 1.064q0 .337.056.84.111.506.336.897.503.728 1.064.896.504.225 7.002.28l8.235.056q1.793.393 1.793 3.025 0 1.065-.616 1.905-.617.84-1.625.84H94.827q-1.288 0-2.857-.616-1.568-.615-2.577-1.4a7.7 7.7 0 0 1-.952-.897q-1.344-1.849-1.344-4.201 0-.56.056-1.569.055-1.008.112-1.288l.224-4.65q.112-.615.112-1.904l.168-2.857q.056-.28.112-1.12 0-.84.112-1.569.448-2.52 1.849-3.977 1.4-1.457 3.809-2.297 1.848-.615 3.305-.616" data-color="1"/>
        <path fill="#ECFD62" d="M120.894 29.297c8.09 0 14.649-6.559 14.649-14.649S128.984 0 120.894 0s-14.648 6.558-14.648 14.648 6.558 14.649 14.648 14.649" data-color="2"/>
        <path fill="#363636" d="M118.477 7.344q.357 0 2.468-.03 2.139-.03 2.229.03 1.249.03 2.08.684.862.653 1.189 1.605a7.6 7.6 0 0 1 .446 2.08q.119 1.13-.029 2.111a8.5 8.5 0 0 1-.417 1.694q-.237.714-.475.862-.297.15-.922.09h-5.38a1.8 1.8 0 0 0-.475 0q-.328.03-.505 0-.15-.06-.357-.179-.178-.12-.268-.446-.089-.327-.059-.862 0-.446.119-.743a2.4 2.4 0 0 1 .178-.386q.09-.15.238-.208a.7.7 0 0 1 .238-.06.7.7 0 0 1 .297 0h.327l3.626-.03q.149 0 .238-.03a.44.44 0 0 0 .178-.148.7.7 0 0 0 .119-.238q.03-.119.03-.297.03-.178.03-.297.029-.15.029-.357v-.327q.03-.772-.327-1.189-.356-.446-1.337-.446h-3.329q-1.13 0-1.546 1.04a5 5 0 0 0-.089.357q-.03.15-.03.357 0 .208-.029.387l-.238 3.596q0 .208-.03.565-.03.356-.03.446 0 .178-.029.535a7 7 0 0 0-.03.564q0 .18.03.446.059.268.178.476.268.386.565.476.267.118 3.715.148l4.37.03q.951.208.951 1.605 0 .565-.327 1.01a1.02 1.02 0 0 1-.862.446h-7.877q-.684 0-1.516-.326-.833-.328-1.367-.744a4 4 0 0 1-.506-.475 3.7 3.7 0 0 1-.713-2.23q0-.297.03-.832t.059-.683l.119-2.467q.06-.327.06-1.011l.089-1.516q.03-.149.059-.594 0-.446.06-.833.237-1.337.981-2.11.743-.772 2.021-1.219.98-.327 1.753-.327" data-color="1"/>
    </g>
</svg>